# xmcd
#
# Track frame offsets: 
#        182
#        17385
#        42910
#
# Disc length: 812 seconds
#
# Revision: 2
# Processed by: cddbd v1.5.2PL0 Copyright (c) Steve Scherf et al.
# Submitted via: ExactAudioCopy v0.95b3
#
DISCID=16032a03
DTITLE=Jewel - You Were Meant For Me CDS
DYEAR=1996
DGENRE=Folk
TTITLE0=You Were Meant For Me (Album Edit)
TTITLE1=Foolish Games (Album Version)
TTITLE2=Foolish Games (Radio Edit)
EXTD=
EXTT0=
EXTT1=
EXTT2=
PLAYORDER=
